<svg width="31" height="41" viewBox="0 0 31 41" fill="none" xmlns="http://www.w3.org/2000/svg">
    <g clip-path="url(#clip0_127_5988)">
        <path fill-rule="evenodd" clip-rule="evenodd" d="M23.9459 28.147C24.4566 29.354 24.9682 30.5607 25.4776 31.7683C26.0568 33.1414 26.6279 34.518 27.2156 35.8875C27.4181 36.3596 27.4552 36.8123 27.0952 37.2062C26.7449 37.5896 26.2997 37.6057 25.8266 37.4384C24.6979 37.0394 23.5627 36.6588 22.4371 36.2513C22.161 36.1513 22.0475 36.2237 21.9314 36.4776C21.4138 37.6094 20.8799 38.7339 20.3436 39.857C20.1296 40.3053 19.7537 40.4731 19.268 40.4371C18.8366 40.4053 18.5706 40.1626 18.4118 39.7842C17.5749 37.7901 16.7417 35.7944 15.9063 33.7997C15.8678 33.7077 15.8193 33.6198 15.7506 33.4789C15.4632 34.1576 15.192 34.7908 14.9264 35.4265C14.3218 36.8739 13.7221 38.3233 13.1158 39.7699C12.9344 40.2025 12.6192 40.4359 12.1302 40.4407C11.6386 40.4455 11.3399 40.2067 11.1399 39.7805C10.6109 38.6537 10.0689 37.5331 9.54227 36.4053C9.44496 36.1968 9.34564 36.165 9.12748 36.2424C7.93623 36.6659 6.73905 37.0728 5.54167 37.4786C5.12339 37.6204 4.72294 37.5461 4.43042 37.22C4.13757 36.8934 4.05278 36.4993 4.23649 36.0628C5.21436 33.7391 6.18383 31.4119 7.15807 29.0867C7.20551 28.9735 7.27072 28.8677 7.32758 28.7585C7.4771 28.821 7.61713 28.897 7.71289 29.0349C7.23108 30.2049 6.75251 31.3762 6.26646 32.5444C5.76703 33.7446 5.25891 34.9412 4.75773 36.1406C4.64845 36.4021 4.61123 36.6698 4.83336 36.8936C5.03806 37.0998 5.27452 37.0379 5.51859 36.9524C6.76442 36.5152 8.0161 36.0945 9.25857 35.6481C9.57598 35.534 9.73082 35.5936 9.87408 35.9083C10.4268 37.1229 11.008 38.3244 11.5771 39.5315C11.6896 39.77 11.8489 39.9557 12.1309 39.9516C12.3959 39.9478 12.56 39.7771 12.6573 39.5445C13.5476 37.4148 14.4281 35.2809 15.3332 33.1575C15.4743 32.8265 15.4506 32.5714 15.2535 32.2972C15.1621 32.3519 15.1471 32.431 15.1174 32.5017C14.2366 34.599 13.356 36.6966 12.4736 38.7933C12.4149 38.9327 12.397 39.1303 12.1988 39.1343C11.9885 39.1387 11.9508 38.934 11.878 38.7891C11.2734 37.5855 10.6659 36.3834 10.0747 35.1732C9.96896 34.9566 9.86849 34.9058 9.64038 34.9857C8.98597 35.2148 8.32382 35.4221 7.66383 35.635C6.99314 35.8514 6.32097 36.0631 5.65048 36.2801C5.53857 36.3163 5.4305 36.3486 5.34047 36.2475C5.26288 36.1604 5.2861 36.0609 5.32674 35.963C5.36113 35.8801 5.38959 35.7949 5.42418 35.7122C6.32864 33.5518 7.23357 31.3916 8.13837 29.2313C8.89425 29.4306 9.66871 29.4104 10.4333 29.3628C11.4443 29.2999 12.3073 29.6224 13.129 30.1731C13.7953 30.6196 14.4812 31.0506 15.3276 31.0683C16.4932 33.8596 17.6605 36.6502 18.8219 39.4434C18.9316 39.7074 19.0597 39.9424 19.3757 39.9509C19.6914 39.9595 19.8421 39.7327 19.9626 39.4759C20.5004 38.3287 21.0348 37.1799 21.5851 36.0387C21.842 35.5061 21.7154 35.472 22.4025 35.7092C23.608 36.1254 24.8144 36.5391 26.0173 36.9628C26.2818 37.056 26.5186 37.0752 26.7226 36.8526C26.9294 36.6271 26.8704 36.3906 26.7636 36.1365C25.7037 33.6166 24.6497 31.0943 23.594 28.5726C23.702 28.4229 23.7896 28.2564 23.9459 28.147Z" fill="#8159D9"/>
        <mask id="mask0_127_5988" style="mask-type:alpha" maskUnits="userSpaceOnUse" x="0" y="0" width="31" height="32">
            <path d="M0.171875 0.575195H30.5967V31.0785H0.171875V0.575195Z" fill="white"/>
        </mask>
        <g mask="url(#mask0_127_5988)">
            <path fill-rule="evenodd" clip-rule="evenodd" d="M10.3755 2.87684C9.8311 2.87684 9.46039 2.8618 9.09137 2.88008C8.4198 2.91339 7.86001 3.16421 7.45969 3.73775C7.15002 4.18141 6.89391 4.65435 6.65099 5.13415C6.21481 5.99587 5.57312 6.63939 4.71152 7.07315C4.33159 7.26444 3.96593 7.48418 3.5957 7.69442C2.82131 8.13404 2.4578 8.80763 2.46547 9.69295C2.47039 10.2659 2.46554 10.839 2.47442 11.4119C2.48432 12.0465 2.32241 12.6326 2.0015 13.1759C1.74485 13.6105 1.48881 14.0457 1.22274 14.4745C0.672836 15.3608 0.645045 16.2441 1.21467 17.133C1.34777 17.3406 1.45523 17.5658 1.59876 17.7653C2.2747 18.7055 2.57624 19.7445 2.47718 20.904C2.44663 21.2611 2.46379 21.6227 2.46689 21.9821C2.47335 22.7485 2.7376 23.3869 3.40338 23.8139C3.65774 23.977 3.90974 24.1524 4.18389 24.2748C5.41229 24.8229 6.3327 25.6749 6.88065 26.9189C6.99316 27.1744 7.148 27.4115 7.2879 27.6545C7.7263 28.4159 8.39706 28.7669 9.26263 28.7666C9.85687 28.7664 10.4512 28.7649 11.0454 28.7591C11.6795 28.7529 12.26 28.9346 12.8011 29.2537C13.2355 29.5098 13.6694 29.7672 14.0973 30.0341C14.952 30.567 15.8033 30.5737 16.6597 30.0411C16.9833 29.8399 17.317 29.6546 17.6358 29.4461C18.3697 28.9662 19.1591 28.7062 20.0466 28.7553C20.5274 28.7819 21.0106 28.7654 21.4927 28.7668C22.3718 28.7694 23.0518 28.416 23.4916 27.638C23.7013 27.267 23.9213 26.9009 24.1121 26.5202C24.5445 25.6572 25.1783 25.0064 26.0439 24.575C26.4346 24.3803 26.813 24.1593 27.1881 23.9353C27.7969 23.572 28.2054 23.0702 28.275 22.3316C28.3396 21.647 28.2949 20.9624 28.2929 20.2781C28.291 19.584 28.4639 18.9484 28.8219 18.358C29.0837 17.9264 29.3395 17.4913 29.5996 17.0587C30.0814 16.2576 30.1056 15.4493 29.6334 14.6367C29.4248 14.2778 29.2149 13.9193 28.9899 13.5708C28.508 12.8246 28.2405 12.025 28.2926 11.1231C28.3211 10.6304 28.3097 10.1347 28.3029 9.64049C28.2924 8.88935 28.0326 8.26417 27.3833 7.83224C26.9436 7.53954 26.4814 7.2881 26.0128 7.04833C25.1867 6.62543 24.5669 6.00356 24.1421 5.17724C23.9318 4.7685 23.7034 4.36866 23.471 3.97192C23.1095 3.35456 22.5884 2.96153 21.8612 2.89491C21.5829 2.86942 21.3016 2.87886 21.0215 2.87387C20.4167 2.86295 19.809 2.92397 19.2075 2.84178C18.4643 2.74023 17.827 2.36413 17.2429 1.93219C15.9952 1.00952 14.7901 0.996578 13.5422 1.92788C12.5571 2.6631 11.4568 3.06314 10.3755 2.87684ZM7.71399 29.0349C7.61823 28.897 7.4782 28.821 7.32868 28.7586C6.6851 28.0003 6.2932 27.0858 5.77492 26.2497C5.4497 25.725 4.95007 25.4062 4.42358 25.1187C3.91257 24.8396 3.38615 24.5863 2.91855 24.2324C2.23917 23.7182 1.88939 23.0318 1.86315 22.1833C1.8507 21.7793 1.83112 21.3715 1.86921 20.9706C1.97088 19.901 1.67709 18.9566 1.06878 18.0856C0.838575 17.7559 0.642353 17.3985 0.464974 17.0367C0.0637164 16.2186 0.0818177 15.3932 0.474125 14.5719C0.69733 14.1045 0.981367 13.6729 1.25699 13.2373C1.67628 12.5747 1.91671 11.8718 1.87116 11.0747C1.84364 10.593 1.86456 10.1088 1.85864 9.62572C1.84518 8.53725 2.32874 7.73123 3.24868 7.17874C3.60391 6.9654 3.96297 6.7555 4.33462 6.57345C5.15086 6.17367 5.7511 5.57391 6.15438 4.75555C6.43128 4.19342 6.71882 3.63384 7.13427 3.15221C7.64407 2.56122 8.29605 2.29279 9.05941 2.27081C9.45144 2.25955 9.84752 2.23487 10.2357 2.27512C11.3312 2.38854 12.2878 2.06219 13.1737 1.44159C13.4662 1.23675 13.7861 1.06846 14.1034 0.902653C14.961 0.454467 15.8207 0.476987 16.6825 0.90508C17.1257 1.12523 17.5406 1.39217 17.9543 1.65918C18.6251 2.09199 19.3447 2.31403 20.1468 2.27904C20.6281 2.258 21.1108 2.27196 21.5928 2.26771C22.6813 2.25807 23.4768 2.75648 24.0211 3.68104C24.2429 4.05782 24.4643 4.43629 24.658 4.8279C25.0358 5.59158 25.6034 6.15142 26.3623 6.53137C26.8328 6.76696 27.2965 7.01752 27.7313 7.3173C28.5092 7.85375 28.9005 8.59659 28.9104 9.5407C28.9143 9.91141 28.9385 10.285 28.9028 10.6524C28.7977 11.7335 29.0934 12.6907 29.7132 13.568C29.9066 13.8418 30.0666 14.1408 30.2263 14.4367C30.758 15.4217 30.7048 16.3952 30.1474 17.3515C29.8706 17.8264 29.5887 18.2983 29.3081 18.7708C29.0259 19.2459 28.8968 19.76 28.9031 20.3119C28.9096 20.8735 28.903 21.4355 28.9126 21.9971C28.9311 23.0865 28.4496 23.8942 27.5349 24.4517C27.1428 24.6907 26.7394 24.9122 26.3321 25.1244C25.669 25.4697 25.1243 25.9311 24.7739 26.6063C24.5055 27.1235 24.2235 27.6337 23.9474 28.147C23.7907 28.2564 23.7031 28.423 23.5951 28.5726C23.4529 28.653 23.3445 28.7708 23.2404 28.8935C22.64 29.297 21.9702 29.4026 21.2625 29.3781C20.7595 29.3607 20.2555 29.3744 19.7519 29.3731C19.4016 29.3721 19.0641 29.4369 18.7437 29.5779C17.7476 30.0163 16.9113 30.7645 15.8508 31.0786C15.6776 31.0291 15.5028 31.0676 15.3287 31.0683C14.4823 31.0507 13.7964 30.6197 13.1301 30.1731C12.3084 29.6224 11.4454 29.2999 10.4344 29.3628C9.6698 29.4105 8.89535 29.4306 8.1394 29.2314C8.01135 29.1359 7.87562 29.0573 7.71399 29.0349Z" fill="#8159D9"/>
        </g>
        <path fill-rule="evenodd" clip-rule="evenodd" d="M19.6843 18.9945C19.9567 19.0027 20.1402 18.7767 20.0606 18.4972C19.5757 16.7964 19.084 15.0976 18.5936 13.3984C18.518 13.1367 18.3188 13.0837 18.0902 13.1382C17.9034 13.1825 17.8541 13.3591 17.8056 13.5232C17.4912 14.5857 17.1764 15.6481 16.8612 16.7104C16.6892 17.2898 16.5093 17.8669 16.347 18.449C16.2801 18.6889 16.331 18.9118 16.6083 18.9812C16.85 19.0416 17.0163 18.9443 17.0814 18.6835C17.1436 18.434 17.2374 18.1924 17.3001 17.943C17.3433 17.771 17.4325 17.7094 17.6078 17.714C17.9994 17.7242 18.3916 17.724 18.7832 17.7141C18.9678 17.7096 19.0694 17.7586 19.1084 17.9584C19.1556 18.1991 19.239 18.433 19.3134 18.6678C19.3706 18.8483 19.4616 18.9986 19.6843 18.9945ZM10.8789 16.074C10.8524 16.3529 10.933 16.6164 11.0631 16.8718C11.3126 17.3612 11.5611 17.8514 11.7979 18.3471C11.9885 18.7462 12.2768 18.983 12.7319 18.9986C13.2108 19.0151 13.5042 18.7638 13.7009 18.356C13.9589 17.8209 14.2273 17.2906 14.4787 16.7524C14.6951 16.2893 14.6936 15.8184 14.4688 15.3559C14.1894 14.7811 13.9135 14.2044 13.6204 13.6366C13.2691 12.9564 12.2931 12.9075 11.9119 13.5741C11.5565 14.1955 11.2668 14.855 10.9577 15.5023C10.8751 15.6755 10.861 15.8702 10.8789 16.074ZM21.7765 15.9588C21.7765 16.8122 21.7798 17.6657 21.7746 18.5191C21.773 18.7971 21.8713 18.9878 22.1684 18.9914C22.5076 18.9954 22.5591 18.7374 22.5647 18.4789C22.575 17.9962 22.5762 17.5129 22.5642 17.0304C22.5591 16.8242 22.6283 16.7573 22.8333 16.7618C23.3598 16.7735 23.8869 16.7743 24.4133 16.7629C25.0401 16.7493 25.5161 16.2782 25.5353 15.6493C25.5496 15.1781 25.5506 14.7058 25.535 14.2346C25.5138 13.5931 25.0193 13.1259 24.3801 13.1241C23.618 13.122 22.8558 13.1332 22.094 13.1181C21.8489 13.1131 21.765 13.1721 21.7702 13.4323C21.7871 14.2742 21.7765 15.1166 21.7765 15.9588ZM5.42478 15.9693C5.42478 16.8002 5.42431 17.6312 5.42539 18.4622C5.42552 18.5516 5.41334 18.6487 5.44295 18.7288C5.51199 18.9155 5.6529 19.0127 5.86063 18.9936C6.1199 18.9697 6.19978 18.7781 6.20698 18.5692C6.22407 18.0757 6.2273 17.5809 6.21095 17.0874C6.2028 16.8424 6.26431 16.7496 6.52573 16.7597C7.04044 16.7798 7.55677 16.7749 8.07202 16.7623C8.68148 16.7474 9.15884 16.2828 9.18232 15.6725C9.20083 15.1904 9.20029 14.7064 9.18266 14.2242C9.15924 13.5843 8.66263 13.1255 8.01792 13.124C7.25584 13.1223 6.4935 13.1352 5.73183 13.1172C5.47047 13.111 5.41523 13.1987 5.41933 13.4427C5.43346 14.2846 5.42478 15.127 5.42478 15.9693ZM10.3746 2.87647C11.4559 3.06277 12.5562 2.66273 13.5413 1.92744C14.7891 0.996138 15.9943 1.00915 17.242 1.93182C17.8261 2.36369 18.4633 2.73979 19.2066 2.84141C19.8081 2.92353 20.4158 2.86258 21.0206 2.87343C21.3007 2.87849 21.582 2.86905 21.8603 2.89454C22.5875 2.96116 23.1086 3.35419 23.4701 3.97155C23.7025 4.36829 23.9309 4.76806 24.1411 5.17687C24.566 6.00318 25.1858 6.62506 26.0119 7.04789C26.4805 7.28773 26.9427 7.53917 27.3824 7.8318C28.0317 8.2638 28.2915 8.88898 28.3019 9.64005C28.3088 10.1343 28.3202 10.6299 28.2917 11.1228C28.2396 12.0246 28.5071 12.8241 28.9889 13.5704C29.214 13.9189 29.4239 14.2775 29.6325 14.6363C30.1046 15.4489 30.0805 16.2572 29.5987 17.0583C29.3386 17.4908 29.0828 17.926 28.821 18.3576C28.463 18.948 28.2901 19.5836 28.292 20.2777C28.294 20.962 28.3387 21.6466 28.2741 22.3313C28.2045 23.0698 27.796 23.5716 27.1872 23.9349C26.8121 24.1589 26.4337 24.3799 26.043 24.5745C25.1774 25.006 24.5436 25.6569 24.1112 26.5198C23.9204 26.9005 23.7004 27.2666 23.4906 27.6377C23.0509 28.4156 22.3709 28.769 21.4918 28.7664C21.0097 28.765 20.5265 28.7815 20.0457 28.7549C19.1582 28.7058 18.3689 28.9658 17.6349 29.4457C17.3161 29.6541 16.9825 29.8394 16.6588 30.0407C15.8024 30.5733 14.9511 30.5666 14.0964 30.0336C13.6685 29.7668 13.2346 29.5094 12.8002 29.2533C12.2591 28.9342 11.6786 28.7524 11.0445 28.7587C10.4503 28.7646 9.85598 28.7659 9.26173 28.7661C8.39616 28.7665 7.7254 28.4154 7.287 27.6541C7.1471 27.4111 6.99226 27.174 6.87975 26.9185C6.3318 25.6745 5.41139 24.8225 4.18299 24.2744C3.90878 24.152 3.65684 23.9766 3.40248 23.8134C2.7367 23.3865 2.47245 22.748 2.46599 21.9816C2.46289 21.6223 2.44574 21.2607 2.47629 20.9036C2.57534 19.7441 2.27381 18.7052 1.59787 17.765C1.45433 17.5653 1.34687 17.3402 1.21377 17.1325C0.644148 16.2437 0.671872 15.3605 1.22184 14.4741C1.48791 14.0453 1.74396 13.6101 2.0006 13.1756C2.32152 12.6321 2.48342 12.046 2.47353 11.4115C2.46464 10.8386 2.46949 10.2656 2.46458 9.69257C2.45691 8.80726 2.82041 8.13367 3.5948 7.69398C3.96504 7.48381 4.3307 7.264 4.71055 7.07277C5.57222 6.63902 6.21391 5.99543 6.65009 5.13378C6.89301 4.65391 7.14912 4.18104 7.45879 3.73731C7.85911 3.16377 8.41884 2.91295 9.0904 2.8797C9.4595 2.86143 9.8302 2.87647 10.3746 2.87647Z" fill="white"/>
        <path fill-rule="evenodd" clip-rule="evenodd" d="M23.2391 28.8928C24.0673 30.8773 24.8955 32.8616 25.7237 34.8461C25.8661 35.1872 26.0126 35.5266 26.1491 35.87C26.197 35.9903 26.2806 36.1228 26.1672 36.2483C26.0514 36.3765 25.9193 36.2972 25.7937 36.2568C24.4953 35.8385 23.1944 35.4275 21.9006 34.9953C21.6431 34.9092 21.5375 34.9645 21.4211 35.204C20.8323 36.4144 20.2235 37.6151 19.6205 38.8186C19.5566 38.946 19.5152 39.0958 19.3236 39.0946C19.1243 39.0933 19.0989 38.9284 19.0461 38.8026C18.0014 36.314 16.9604 33.8237 15.9205 31.3331C15.8867 31.2522 15.8728 31.1629 15.8496 31.0777C16.9101 30.7638 17.7463 30.0156 18.7425 29.5772C19.0628 29.4363 19.4004 29.3714 19.7507 29.3724C20.2543 29.3737 20.7583 29.3601 21.2612 29.3774C21.9689 29.402 22.6388 29.2963 23.2391 28.8928Z" fill="#8159D9"/>
        <path fill-rule="evenodd" clip-rule="evenodd" d="M6.18325 14.9331C6.18325 15.2133 6.1885 15.4936 6.18123 15.7736C6.17706 15.9355 6.21555 16.0222 6.40323 16.0188C6.92877 16.0095 7.45458 16.017 7.98026 16.0147C8.26712 16.0134 8.4192 15.8501 8.42882 15.5774C8.44343 15.1632 8.44578 14.7477 8.42963 14.3337C8.41873 14.0511 8.27143 13.8787 7.96021 13.8825C7.45694 13.8885 6.9534 13.8907 6.45026 13.881C6.24247 13.8769 6.17242 13.9603 6.18076 14.1599C6.19146 14.4172 6.18332 14.6753 6.18325 14.9331ZM5.42461 15.9696C5.42461 15.1273 5.43322 14.2849 5.41916 13.443C5.41499 13.199 5.4703 13.1113 5.73166 13.1175C6.49326 13.1355 7.25567 13.1225 8.01774 13.1243C8.66246 13.1257 9.15907 13.5846 9.18242 14.2245C9.20012 14.7067 9.20065 15.1907 9.18215 15.6728C9.15866 16.2831 8.6813 16.7478 8.07178 16.7627C7.5566 16.7753 7.04027 16.7801 6.52549 16.76C6.26413 16.7498 6.20263 16.8428 6.21077 17.0877C6.22712 17.5811 6.22389 18.0761 6.2068 18.5696C6.1996 18.7784 6.11973 18.97 5.86045 18.9939C5.65273 19.013 5.51182 18.9158 5.44278 18.7291C5.41317 18.649 5.42528 18.5519 5.42515 18.4625C5.42414 17.6315 5.42461 16.8005 5.42461 15.9696Z" fill="#8159D9"/>
        <path fill-rule="evenodd" clip-rule="evenodd" d="M22.5348 14.9464C22.5348 15.2267 22.5421 15.5071 22.5322 15.7869C22.5258 15.9646 22.5968 16.0206 22.7684 16.018C23.2828 16.0104 23.7974 16.0144 24.3119 16.0153C24.6148 16.0159 24.7728 15.8532 24.7816 15.5633C24.7942 15.149 24.7986 14.7335 24.7798 14.3197C24.7668 14.0339 24.6054 13.8762 24.2979 13.8814C23.806 13.8898 23.3135 13.8917 22.8217 13.88C22.6015 13.8747 22.5203 13.9546 22.5316 14.1732C22.5448 14.4303 22.5347 14.6887 22.5348 14.9464ZM21.7761 15.9587C21.7761 15.1165 21.7866 14.274 21.7698 13.4322C21.7646 13.172 21.8484 13.1131 22.0934 13.1179C22.8553 13.133 23.6176 13.1219 24.3796 13.124C25.0188 13.1258 25.5134 13.593 25.5345 14.2345C25.5501 14.7056 25.5492 15.178 25.5348 15.6492C25.5157 16.2781 25.0396 16.7492 24.4129 16.7628C23.8864 16.7742 23.3593 16.7734 22.8328 16.7617C22.6278 16.7572 22.5586 16.8241 22.5637 17.0303C22.5756 17.5129 22.5746 17.9961 22.5642 18.4788C22.5586 18.7373 22.5071 18.9953 22.168 18.9913C21.8708 18.9878 21.7725 18.797 21.7741 18.519C21.7793 17.6656 21.7761 16.8121 21.7761 15.9587Z" fill="#8159D9"/>
        <path fill-rule="evenodd" clip-rule="evenodd" d="M13.8561 16.0653C13.8343 15.9563 13.8335 15.8373 13.7871 15.7401C13.5165 15.1739 13.2432 14.6085 12.9536 14.0518C12.8275 13.8094 12.6286 13.8118 12.5014 14.0592C12.2248 14.5973 11.9655 15.1445 11.7082 15.6922C11.5753 15.975 11.6106 16.2614 11.7456 16.5355C11.9883 17.0284 12.2357 17.5188 12.4804 18.0107C12.5364 18.1233 12.5932 18.2433 12.7411 18.2366C12.8683 18.2311 12.9254 18.127 12.9773 18.0232C13.2328 17.5117 13.4912 17.0017 13.7467 16.4903C13.8128 16.3582 13.8513 16.2181 13.8561 16.0653ZM10.8789 16.0742C10.861 15.8704 10.8752 15.6756 10.9578 15.5025C11.2668 14.8552 11.5565 14.1957 11.9118 13.5743C12.293 12.9076 13.2691 12.9566 13.6204 13.6368C13.9135 14.2045 14.1894 14.7813 14.4688 15.356C14.6936 15.8185 14.6951 16.2895 14.4787 16.7526C14.2273 17.2908 13.9588 17.821 13.7008 18.3562C13.5042 18.764 13.2109 19.0152 12.7319 18.9988C12.2768 18.9832 11.9886 18.7464 11.7979 18.3474C11.5612 17.8516 11.3126 17.3614 11.0631 16.8719C10.933 16.6165 10.8525 16.3531 10.8789 16.0742Z" fill="#8159D9"/>
        <path fill-rule="evenodd" clip-rule="evenodd" d="M18.2583 15.0297C18.2294 15.0303 18.2005 15.0309 18.1716 15.0316C18.0686 15.3815 17.957 15.7292 17.865 16.0819C17.7899 16.37 17.5078 16.7563 17.7035 16.9213C17.8945 17.0821 18.3207 16.9604 18.6436 16.9674C18.784 16.9705 18.8108 16.9236 18.7696 16.7873C18.5932 16.2032 18.4278 15.6158 18.2583 15.0297ZM19.6852 18.9943C19.4624 18.9985 19.3713 18.8482 19.3141 18.6678C19.2397 18.433 19.1563 18.1991 19.1092 17.9584C19.0701 17.7586 18.9685 17.7095 18.784 17.7141C18.3923 17.724 18.0001 17.7242 17.6085 17.7141C17.4332 17.7095 17.3441 17.771 17.3008 17.943C17.2381 18.1924 17.1443 18.434 17.0821 18.6835C17.017 18.9443 16.8507 19.0416 16.609 18.9811C16.3317 18.9119 16.2808 18.6889 16.3477 18.4489C16.51 17.8669 16.6899 17.2898 16.8619 16.7104C17.1772 15.6481 17.4919 14.5857 17.8063 13.5232C17.8549 13.3592 17.9041 13.1825 18.0909 13.1381C18.3195 13.0838 18.5188 13.1367 18.5943 13.3984C19.0847 15.0976 19.5764 16.7964 20.0613 18.4972C20.1409 18.7767 19.9574 19.0027 19.6852 18.9943Z" fill="#8159D9"/>
        <path fill-rule="evenodd" clip-rule="evenodd" d="M6.18289 14.9329C6.18296 14.6751 6.19103 14.417 6.18033 14.1597C6.17206 13.9601 6.24211 13.8766 6.4499 13.8808C6.95304 13.8905 7.45651 13.8882 7.95978 13.8822C8.27107 13.8785 8.41831 14.0509 8.42927 14.3335C8.44536 14.7475 8.443 15.163 8.4284 15.5772C8.41884 15.8499 8.26677 16.0132 7.9799 16.0145C7.45422 16.0168 6.92834 16.0093 6.40287 16.0186C6.21512 16.022 6.17663 15.9353 6.18081 15.7734C6.18814 15.4934 6.18289 15.2131 6.18289 14.9329Z" fill="white"/>
        <path fill-rule="evenodd" clip-rule="evenodd" d="M22.5345 14.9463C22.5344 14.6885 22.5446 14.4302 22.5313 14.1731C22.52 13.9545 22.6013 13.8746 22.8214 13.8799C23.3132 13.8915 23.8057 13.8897 24.2977 13.8813C24.6051 13.876 24.7666 14.0338 24.7795 14.3196C24.7983 14.7334 24.794 15.1489 24.7814 15.5632C24.7725 15.8531 24.6145 16.0158 24.3116 16.0152C23.7971 16.0143 23.2825 16.0102 22.7682 16.0179C22.5965 16.0205 22.5255 15.9645 22.5319 15.7868C22.5419 15.507 22.5345 15.2265 22.5345 14.9463Z" fill="white"/>
        <path fill-rule="evenodd" clip-rule="evenodd" d="M13.8565 16.0651C13.8517 16.2179 13.8132 16.358 13.7471 16.4901C13.4916 17.0015 13.2332 17.5115 12.9777 18.023C12.9259 18.1268 12.8687 18.2308 12.7415 18.2364C12.5936 18.243 12.5368 18.1231 12.4808 18.0105C12.2361 17.5186 11.9887 17.0281 11.746 16.5353C11.611 16.2612 11.5757 15.9747 11.7086 15.6919C11.9659 15.1442 12.2252 14.5971 12.5019 14.059C12.629 13.8115 12.8279 13.8092 12.954 14.0516C13.2436 14.6083 13.5169 15.1736 13.7875 15.7399C13.8339 15.837 13.8347 15.9561 13.8565 16.0651Z" fill="white"/>
        <path fill-rule="evenodd" clip-rule="evenodd" d="M18.2574 15.0295C18.4269 15.6157 18.5924 16.2031 18.7687 16.7872C18.8099 16.9235 18.7831 16.9704 18.6427 16.9673C18.3198 16.9603 17.8936 17.082 17.7026 16.9211C17.507 16.7562 17.789 16.3699 17.8641 16.0817C17.9561 15.729 18.0677 15.3814 18.1707 15.0315C18.1997 15.0308 18.2285 15.0302 18.2574 15.0295Z" fill="white"/>
    </g>
    <defs>
        <clipPath id="clip0_127_5988">
            <rect width="30.4829" height="39.9841" fill="white" transform="translate(0.168945 0.508057)"/>
        </clipPath>
    </defs>
</svg>
